<?xml version="1.0" encoding="UTF-8" standalone="no"?><!-- Generator: Gravit.io --><svg xmlns="http://www.w3.org/2000/svg" xmlns:xlink="http://www.w3.org/1999/xlink" style="isolation:isolate" viewBox="0 0 16 16" width="16pt" height="16pt"><defs><clipPath id="_clipPath_NqY2xpHesg8i6Xt9G0l4vsH6srAXit8T"><rect width="16" height="16"/></clipPath></defs><g clip-path="url(#_clipPath_NqY2xpHesg8i6Xt9G0l4vsH6srAXit8T)"><path d=" M 4.281 16 C 3.825 15.993 3.829 15.078 4.281 15.07 L 8.93 15.07 C 9.398 15.071 9.401 16 8.93 16 L 4.281 16 Z " fill="rgb(0,0,0)"/><path d=" M 11.719 7.167 L 11.719 8.097 L 12.649 8.097 C 12.927 8.102 13.113 8.285 13.114 8.562 L 13.114 9.957 C 13.11 10.265 12.963 10.416 12.649 10.422 L 11.719 10.422 L 11.719 11.351 L 13.114 11.351 C 13.843 11.349 14.046 11.107 14.043 10.422 L 14.043 8.097 C 14.043 7.39 13.814 7.171 13.114 7.167 L 11.719 7.167 Z " fill="rgb(0,0,0)"/><path d=" M 3.816 14.605 L 3.816 13.676 L 9.395 13.676 C 10.121 13.682 10.324 13.44 10.324 12.746 L 10.324 6.238 L 2.886 6.238 L 2.886 12.746 L 1.957 12.746 L 1.957 6.238 C 1.956 5.496 2.2 5.304 2.886 5.308 L 10.324 5.308 C 11.016 5.312 11.257 5.51 11.254 6.238 L 11.254 13.211 C 11.258 14.139 10.789 14.612 9.859 14.605 L 3.816 14.605 Z " fill="rgb(0,0,0)"/><path d=" M 3.351 13.676 L 3.351 14.605 L 2.886 14.605 C 2.193 14.606 1.956 14.371 1.957 13.676 L 1.957 13.211 L 2.886 13.211 C 2.886 13.675 2.888 13.673 3.351 13.676 Z " fill="rgb(0,0,0)"/><path d=" M 5.088 4.397 C 6.459 3.283 4.19 1.759 5.088 0.588 C 5.527 0.096 5.135 -0.443 4.159 0.588 C 3.251 1.759 5.557 3.246 4.159 4.397 C 3.693 4.797 4.164 5.159 5.088 4.397 Z " fill="rgb(0,0,0)"/><path d=" M 8.511 4.397 C 9.882 3.283 7.723 2.902 8.622 1.731 C 9.061 1.239 8.669 0.7 7.692 1.731 C 6.785 2.902 8.98 3.246 7.581 4.397 C 7.116 4.797 7.587 5.159 8.511 4.397 Z " fill="rgb(0,0,0)"/><path d=" M 6.835 4.397 C 8.206 3.283 6.036 2.521 6.935 1.35 C 7.374 0.858 6.982 0.319 6.005 1.35 C 5.098 2.521 7.304 3.246 5.906 4.397 C 5.44 4.797 5.911 5.159 6.835 4.397 Z " fill="rgb(0,0,0)"/></g></svg>