<?xml version="1.0" encoding="UTF-8" standalone="no"?><!-- Generator: Gravit.io --><svg xmlns="http://www.w3.org/2000/svg" xmlns:xlink="http://www.w3.org/1999/xlink" style="isolation:isolate" viewBox="0 0 800 300" width="800pt" height="300pt"><defs><clipPath id="_clipPath_daEMS4nXPZ2olVjU3h2jtkhyOfGIddvr"><rect width="800" height="300"/></clipPath></defs><g clip-path="url(#_clipPath_daEMS4nXPZ2olVjU3h2jtkhyOfGIddvr)"><path d=" M 677.785 171.123 Q 676.514 172.514 675.583 173.343 L 675.583 173.343 L 675.583 173.343 Q 673.875 174.865 672.632 174.865 L 672.632 174.865 L 672.632 174.865 Q 670.83 174.865 670.83 172.379 L 670.83 172.379 L 670.83 172.379 Q 670.83 170.64 672.01 165.234 L 672.01 165.234 L 672.01 165.234 Q 673.377 158.896 673.377 156.472 L 673.377 156.472 L 673.377 156.472 Q 673.377 152.433 669.338 152.433 L 669.338 152.433 L 669.338 152.433 Q 667.288 152.433 664.834 153.862 L 664.834 153.862 L 664.834 153.862 Q 662.379 155.292 659.831 158.647 L 659.831 158.647 L 659.831 158.647 Q 657.284 162.002 655.233 167.346 L 655.233 167.346 L 655.233 167.346 Q 655.482 164.612 655.855 162.748 L 655.855 162.748 L 655.855 162.748 Q 656.227 160.884 656.849 158.398 L 656.849 158.398 L 656.849 158.398 Q 657.781 154.919 657.781 153.925 L 657.781 153.925 L 657.781 153.925 Q 657.781 153.055 657.284 152.744 L 657.284 152.744 L 657.284 152.744 Q 656.787 152.433 655.544 152.433 L 655.544 152.433 L 655.544 152.433 Q 653.245 152.433 651.971 153.272 L 651.971 153.272 L 651.971 153.272 Q 650.697 154.111 650.138 155.913 L 650.138 155.913 L 650.138 155.913 Q 648 162.675 647.85 170.136 Q 646.011 172.238 644.794 173.343 L 644.794 173.343 L 644.794 173.343 Q 643.116 174.865 641.936 174.865 L 641.936 174.865 L 641.936 174.865 Q 641.19 174.865 640.724 174.306 L 640.724 174.306 L 640.724 174.306 Q 640.258 173.746 640.258 172.814 L 640.258 172.814 L 640.258 172.814 Q 640.258 170.018 641.687 162.872 L 641.687 162.872 L 641.687 162.872 Q 642.619 157.964 642.619 156.659 L 642.619 156.659 L 642.619 156.659 Q 642.619 154.484 639.575 154.484 L 639.575 154.484 L 639.575 154.484 Q 638.145 154.484 636.841 154.732 L 636.841 154.732 L 636.841 154.732 Q 636.53 153.365 636.064 152.837 L 636.064 152.837 L 636.064 152.837 Q 635.598 152.309 634.231 152.309 L 634.231 152.309 L 634.231 152.309 Q 629.943 152.309 626.122 155.012 L 626.122 155.012 L 626.122 155.012 Q 622.3 157.715 620.001 162.158 L 620.001 162.158 L 620.001 162.158 Q 619.825 162.498 619.662 162.842 L 619.662 162.842 Q 616.655 163.533 614.347 163.68 L 614.347 163.68 L 614.347 163.68 Q 613.85 159.082 611.24 155.944 L 611.24 155.944 L 611.24 155.944 Q 608.63 152.806 604.467 152.495 L 604.467 152.495 L 604.467 152.495 Q 608.941 146.965 610.867 141.932 L 610.867 141.932 L 610.867 141.932 Q 612.793 136.899 612.793 131.804 L 612.793 131.804 L 612.793 131.804 Q 612.793 127.889 611.054 125.435 L 611.054 125.435 L 611.054 125.435 Q 609.314 122.98 606.455 122.98 L 606.455 122.98 L 606.455 122.98 Q 601.174 122.98 597.352 129.598 L 597.352 129.598 L 597.352 129.598 Q 593.531 136.215 591.542 145.629 L 591.542 145.629 L 591.542 145.629 Q 589.554 155.043 589.554 163.059 L 589.554 163.059 L 589.554 163.059 Q 589.554 163.844 589.575 164.596 Q 588.096 165.669 587.006 165.669 L 587.006 165.669 L 587.006 165.669 Q 585.453 165.669 585.453 163.494 L 585.453 163.494 L 585.453 163.494 Q 585.453 162.872 585.95 160.387 L 585.95 160.387 L 585.95 160.387 Q 586.509 157.28 586.509 156.472 L 586.509 156.472 L 586.509 156.472 Q 586.509 152.433 582.47 152.433 L 582.47 152.433 L 582.47 152.433 Q 580.42 152.433 577.965 153.862 L 577.965 153.862 L 577.965 153.862 Q 575.511 155.292 572.963 158.647 L 572.963 158.647 L 572.963 158.647 Q 570.416 162.002 568.365 167.346 L 568.365 167.346 L 568.365 167.346 Q 568.614 164.612 568.986 162.748 L 568.986 162.748 L 568.986 162.748 Q 569.359 160.884 569.981 158.398 L 569.981 158.398 L 569.981 158.398 Q 570.913 154.919 570.913 153.925 L 570.913 153.925 L 570.913 153.925 Q 570.913 153.055 570.416 152.744 L 570.416 152.744 L 570.416 152.744 Q 569.919 152.433 568.676 152.433 L 568.676 152.433 L 568.676 152.433 Q 566.377 152.433 565.103 153.272 L 565.103 153.272 L 565.103 153.272 Q 563.829 154.111 563.27 155.913 L 563.27 155.913 L 563.27 155.913 Q 561.14 162.649 560.983 170.078 Q 559.227 171.965 557.833 172.939 L 557.833 172.939 L 557.833 172.939 Q 555.875 174.306 553.825 174.306 L 553.825 174.306 L 553.825 174.306 Q 551.899 174.306 550.749 172.97 L 550.749 172.97 L 550.749 172.97 Q 549.6 171.634 549.6 169.086 L 549.6 169.086 L 549.6 169.086 Q 549.6 167.346 550.097 163.742 L 550.097 163.742 L 550.097 163.742 Q 551.091 155.789 552.769 146.282 L 552.769 146.282 L 552.769 146.282 Q 553.576 141.373 553.98 138.639 L 553.98 138.639 L 553.98 138.639 Q 554.384 135.905 554.384 134.227 L 554.384 134.227 L 554.384 134.227 Q 554.384 131.307 553.328 130.002 L 553.328 130.002 L 553.328 130.002 Q 552.271 128.697 550.097 128.697 L 550.097 128.697 L 550.097 128.697 Q 547.673 128.697 546.834 129.94 L 546.834 129.94 L 546.834 129.94 Q 545.996 131.182 545.561 134.351 L 545.561 134.351 L 545.561 134.351 Q 543.759 148.146 540.496 157 L 540.496 157 L 540.496 157 Q 537.234 165.855 533.413 169.832 L 533.413 169.832 L 533.413 169.832 Q 529.591 173.809 525.863 173.809 L 525.863 173.809 L 525.863 173.809 Q 523.813 173.809 522.694 172.628 L 522.694 172.628 L 522.694 172.628 Q 521.576 171.447 521.576 169.459 L 521.576 169.459 L 521.576 169.459 Q 521.576 168.216 521.762 166.942 L 521.762 166.942 L 521.762 166.942 Q 521.948 165.669 522.259 164.239 L 522.259 164.239 L 522.259 164.239 Q 522.57 162.81 522.694 162.251 L 522.694 162.251 L 525.242 150.88 L 525.242 150.88 Q 526.298 146.282 526.733 143.61 L 526.733 143.61 L 526.733 143.61 Q 527.168 140.938 527.168 137.769 L 527.168 137.769 L 527.168 137.769 Q 527.168 133.295 525.024 130.996 L 525.024 130.996 L 525.024 130.996 Q 522.88 128.697 519.09 128.697 L 519.09 128.697 L 519.09 128.697 Q 510.577 128.697 504.239 137.396 L 504.239 137.396 L 504.239 137.396 Q 502.499 139.819 502.499 141.746 L 502.499 141.746 L 502.499 141.746 Q 502.499 142.802 503.152 143.641 L 503.152 143.641 L 503.152 143.641 Q 503.804 144.48 504.674 144.48 L 504.674 144.48 L 504.674 144.48 Q 505.73 144.48 506.6 143.299 L 506.6 143.299 L 506.6 143.299 Q 509.334 139.633 511.82 137.862 L 511.82 137.862 L 511.82 137.862 Q 514.305 136.091 516.17 136.091 L 516.17 136.091 L 516.17 136.091 Q 517.164 136.091 517.754 136.837 L 517.754 136.837 L 517.754 136.837 Q 518.344 137.582 518.344 139.074 L 518.344 139.074 L 518.344 139.074 Q 518.344 141.684 517.878 143.92 L 517.878 143.92 L 517.878 143.92 Q 517.412 146.157 517.288 146.655 L 517.288 146.655 L 513.436 164.426 L 513.436 164.426 Q 512.628 168.34 512.628 171.075 L 512.628 171.075 L 512.628 171.075 Q 512.628 175.921 515.3 178.811 L 515.3 178.811 L 515.3 178.811 Q 517.972 181.7 523.191 181.7 L 523.191 181.7 L 523.191 181.7 Q 529.405 181.7 534.158 176.915 L 534.158 176.915 L 534.158 176.915 Q 538.912 172.131 542.019 162.997 L 542.019 162.997 L 542.019 162.997 Q 541.025 169.832 541.025 172.193 L 541.025 172.193 L 541.025 172.193 Q 541.025 176.418 543.759 179.059 L 543.759 179.059 L 543.759 179.059 Q 546.493 181.7 551.65 181.7 L 551.65 181.7 L 551.65 181.7 Q 555.13 181.7 558.299 179.898 L 558.299 179.898 L 558.299 179.898 Q 559.876 179.001 561.468 177.581 Q 561.663 178.516 561.934 179.215 L 561.934 179.215 L 561.934 179.215 Q 562.897 181.7 565.258 181.7 L 565.258 181.7 L 565.258 181.7 Q 567.184 181.7 568.085 180.675 L 568.085 180.675 L 568.085 180.675 Q 568.986 179.65 569.67 176.729 L 569.67 176.729 L 569.67 176.729 Q 570.602 172.939 572.093 169.521 L 572.093 169.521 L 572.093 169.521 Q 573.585 166.104 575.107 164.022 L 575.107 164.022 L 575.107 164.022 Q 576.629 161.94 577.561 161.94 L 577.561 161.94 L 577.561 161.94 Q 578.245 161.94 578.245 162.935 L 578.245 162.935 L 578.245 162.935 Q 578.245 163.369 578.121 164.612 L 578.121 164.612 L 578.121 164.612 Q 577.934 165.544 577.934 166.476 L 577.934 166.476 L 577.934 166.476 Q 577.934 169.335 579.643 171.012 L 579.643 171.012 L 579.643 171.012 Q 581.352 172.69 584.645 172.69 L 584.645 172.69 L 584.645 172.69 Q 587.255 172.69 589.585 171.416 L 589.585 171.416 L 589.585 171.416 Q 589.93 171.228 590.262 171.028 L 590.262 171.028 Q 590.977 174.512 592.412 176.915 L 592.412 176.915 L 592.412 176.915 Q 595.271 181.7 601.547 181.7 L 601.547 181.7 L 601.547 181.7 Q 605.71 181.7 609.158 178.531 L 609.158 178.531 L 609.158 178.531 Q 612.607 175.362 613.85 170.205 L 613.85 170.205 L 613.85 170.205 Q 615.891 170.12 617.777 169.802 Q 617.702 170.678 617.702 171.572 L 617.702 171.572 L 617.702 171.572 Q 617.702 176.108 620.001 178.904 L 620.001 178.904 L 620.001 178.904 Q 622.3 181.7 626.153 181.7 L 626.153 181.7 L 626.153 181.7 L 626.153 181.7 Q 631.062 181.7 634.293 176.48 L 634.293 176.48 L 634.293 176.48 Q 635.163 178.904 636.872 180.302 L 636.872 180.302 L 636.872 180.302 Q 638.58 181.7 640.631 181.7 L 640.631 181.7 L 640.631 181.7 Q 643.303 181.7 646.161 179.525 L 646.161 179.525 L 646.161 179.525 Q 647.282 178.673 648.355 177.667 L 648.355 177.667 Q 648.544 178.548 648.802 179.215 L 648.802 179.215 L 648.802 179.215 Q 649.765 181.7 652.126 181.7 L 652.126 181.7 L 652.126 181.7 Q 654.053 181.7 654.954 180.675 L 654.954 180.675 L 654.954 180.675 Q 655.855 179.65 656.538 176.729 L 656.538 176.729 L 656.538 176.729 Q 657.47 172.939 658.993 169.521 L 658.993 169.521 L 658.993 169.521 Q 660.515 166.104 661.975 164.022 L 661.975 164.022 L 661.975 164.022 Q 663.435 161.94 664.243 161.94 L 664.243 161.94 L 664.243 161.94 Q 664.927 161.94 664.927 162.935 L 664.927 162.935 L 664.927 162.935 Q 664.927 164.426 664.119 168.34 L 664.119 168.34 L 664.119 168.34 Q 663.249 172.814 663.249 174.554 L 663.249 174.554 L 663.249 174.554 Q 663.249 178.034 664.865 179.867 L 664.865 179.867 L 664.865 179.867 Q 666.48 181.7 669.649 181.7 L 669.649 181.7 L 669.649 181.7 Q 673.564 181.7 676.64 179.587 L 676.64 179.587 L 676.64 179.587 Q 678.357 178.408 679.948 176.861 Q 681.161 178.659 682.978 179.898 L 682.978 179.898 L 682.978 179.898 Q 685.618 181.7 689.347 181.7 L 689.347 181.7 L 689.347 181.7 Q 693.758 181.7 697.238 178.562 L 697.238 178.562 L 697.238 178.562 Q 700.718 175.424 701.898 170.205 L 701.898 170.205 L 701.898 170.205 Q 706.372 170.018 710.101 168.713 L 710.101 168.713 L 710.101 168.713 Q 711.903 168.154 711.903 165.171 L 711.903 165.171 L 711.903 165.171 Q 711.903 163.929 711.468 163.121 L 711.468 163.121 L 711.468 163.121 Q 711.033 162.313 710.225 162.313 L 710.225 162.313 L 710.225 162.313 L 710.225 162.313 Q 709.852 162.313 709.355 162.437 L 709.355 162.437 L 709.355 162.437 Q 705.316 163.494 702.396 163.68 L 702.396 163.68 L 702.396 163.68 Q 701.898 158.896 699.009 155.633 L 699.009 155.633 L 699.009 155.633 Q 696.12 152.371 691.397 152.371 L 691.397 152.371 L 691.397 152.371 Q 687.545 152.371 684.376 154.453 L 684.376 154.453 L 684.376 154.453 Q 681.207 156.534 679.405 160.232 L 679.405 160.232 L 679.405 160.232 Q 677.603 163.929 677.603 168.651 L 677.603 168.651 L 677.603 168.651 Q 677.603 169.92 677.785 171.123 Z  M 605.026 129.132 L 605.026 129.132 Q 603.783 129.132 602.323 132.829 L 602.323 132.829 L 602.323 132.829 Q 600.863 136.526 599.62 142.864 L 599.62 142.864 L 599.62 142.864 Q 598.377 149.202 597.756 156.721 L 597.756 156.721 L 597.756 156.721 Q 601.857 149.202 604.312 143.454 L 604.312 143.454 L 604.312 143.454 Q 606.766 137.707 606.766 133.233 L 606.766 133.233 L 606.766 133.233 Q 606.766 131.244 606.3 130.188 L 606.3 130.188 L 606.3 130.188 Q 605.834 129.132 605.026 129.132 L 605.026 129.132 L 605.026 129.132 L 605.026 129.132 L 605.026 129.132 L 605.026 129.132 Z  M 601.795 175.113 L 601.795 175.113 Q 603.721 175.113 605.213 173.498 L 605.213 173.498 L 605.213 173.498 Q 606.704 171.882 607.201 168.838 L 607.201 168.838 L 607.201 168.838 Q 605.275 167.533 604.249 165.42 L 604.249 165.42 L 604.249 165.42 Q 603.224 163.307 603.224 160.946 L 603.224 160.946 L 603.224 160.946 Q 603.224 160.076 603.473 158.585 L 603.473 158.585 L 603.286 158.585 L 603.286 158.585 Q 600.739 158.585 599.03 161.101 L 599.03 161.101 L 599.03 161.101 Q 597.321 163.618 597.321 167.843 L 597.321 167.843 L 597.321 167.843 Q 597.321 171.385 598.657 173.249 L 598.657 173.249 L 598.657 173.249 Q 599.993 175.113 601.795 175.113 L 601.795 175.113 L 601.795 175.113 L 601.795 175.113 L 601.795 175.113 L 601.795 175.113 Z  M 628.39 175.424 L 628.39 175.424 Q 629.757 175.424 631 173.809 L 631 173.809 L 631 173.809 Q 632.242 172.193 632.802 169.521 L 632.802 169.521 L 635.101 158.088 L 635.101 158.088 Q 632.491 158.15 630.285 160.045 L 630.285 160.045 L 630.285 160.045 Q 628.079 161.94 626.774 165.047 L 626.774 165.047 L 626.774 165.047 Q 625.469 168.154 625.469 171.634 L 625.469 171.634 L 625.469 171.634 Q 625.469 173.56 626.246 174.492 L 626.246 174.492 L 626.246 174.492 Q 627.023 175.424 628.39 175.424 L 628.39 175.424 L 628.39 175.424 L 628.39 175.424 L 628.39 175.424 Z  M 689.844 175.113 L 689.844 175.113 Q 691.832 175.113 693.292 173.498 L 693.292 173.498 L 693.292 173.498 Q 694.753 171.882 695.25 168.838 L 695.25 168.838 L 695.25 168.838 Q 693.324 167.533 692.298 165.42 L 692.298 165.42 L 692.298 165.42 Q 691.273 163.307 691.273 160.946 L 691.273 160.946 L 691.273 160.946 Q 691.273 159.952 691.459 158.958 L 691.459 158.958 L 691.149 158.958 L 691.149 158.958 Q 688.663 158.958 687.017 161.35 L 687.017 161.35 L 687.017 161.35 Q 685.37 163.742 685.37 168.092 L 685.37 168.092 L 685.37 168.092 Q 685.37 171.509 686.706 173.311 L 686.706 173.311 L 686.706 173.311 Q 688.042 175.113 689.844 175.113 L 689.844 175.113 L 689.844 175.113 Z " fill-rule="evenodd" fill="rgb(255,255,255)"/><path d=" M 458.179 175.088 Q 456.484 176.736 454.655 177.993 L 454.655 177.993 L 454.655 177.993 Q 451.378 180.244 447.207 180.244 L 447.207 180.244 L 447.207 180.244 Q 443.831 180.244 442.11 178.291 L 442.11 178.291 L 442.11 178.291 Q 440.389 176.338 440.389 172.631 L 440.389 172.631 L 440.389 172.631 Q 440.389 170.777 441.315 166.011 L 441.315 166.011 L 441.315 166.011 Q 442.176 161.84 442.176 160.251 L 442.176 160.251 L 442.176 160.251 Q 442.176 159.192 441.448 159.192 L 441.448 159.192 L 441.448 159.192 Q 440.587 159.192 439.032 161.41 L 439.032 161.41 L 439.032 161.41 Q 437.476 163.627 435.854 167.268 L 435.854 167.268 L 435.854 167.268 Q 434.232 170.909 433.239 174.948 L 433.239 174.948 L 433.239 174.948 Q 432.511 178.059 431.551 179.151 L 431.551 179.151 L 431.551 179.151 Q 430.591 180.244 428.539 180.244 L 428.539 180.244 L 428.539 180.244 Q 426.023 180.244 424.997 177.596 L 424.997 177.596 L 424.997 177.596 Q 424.661 176.729 424.436 175.523 Q 422.91 176.667 421.025 177.728 L 421.025 177.728 L 421.025 177.728 Q 416.556 180.244 411.459 180.244 L 411.459 180.244 L 411.459 180.244 Q 404.508 180.244 400.668 176.47 L 400.668 176.47 L 400.668 176.47 Q 399.976 175.79 399.408 175.019 L 399.408 175.019 Q 397.45 176.914 395.604 177.827 L 395.604 177.827 L 395.604 177.827 Q 392.592 179.317 388.156 179.449 L 388.156 179.449 L 388.156 179.449 Q 385.508 181.7 381.867 181.7 L 381.867 181.7 L 381.867 181.7 Q 378.425 181.7 376.604 180.111 L 376.604 180.111 L 376.604 180.111 Q 374.784 178.522 374.784 176.536 L 374.784 176.536 L 374.784 176.536 Q 374.784 174.815 376.042 173.557 L 376.042 173.557 L 376.042 173.557 Q 377.3 172.3 379.749 172.3 L 379.749 172.3 L 379.749 172.3 Q 380.61 172.3 381.768 172.465 L 381.768 172.465 L 381.768 172.465 Q 382.927 172.631 383.522 172.697 L 383.522 172.697 L 383.522 172.697 Q 383.456 170.976 382.761 169.453 L 382.761 169.453 L 382.761 169.453 Q 382.066 167.93 381.007 166.507 L 381.007 166.507 L 381.007 166.507 Q 379.948 165.084 379.021 164.024 L 379.021 164.024 L 379.021 164.024 Q 376.969 167.93 374.949 170.512 L 374.949 170.512 L 374.949 170.512 Q 374.581 170.983 374.201 171.444 Q 373.968 171.875 373.658 172.233 L 373.658 172.233 L 373.658 172.233 Q 367.105 180.244 361.411 180.244 L 361.411 180.244 L 361.411 180.244 L 361.411 180.244 Q 357.108 180.244 355.155 177.198 L 355.155 177.198 L 355.155 177.198 Q 353.203 174.153 353.203 169.122 L 353.203 169.122 L 353.203 169.122 Q 353.203 166.143 353.964 161.476 L 353.964 161.476 L 353.964 161.476 Q 354.725 156.809 355.917 152.77 L 355.917 152.77 L 355.917 152.77 Q 356.513 150.652 357.506 149.858 L 357.506 149.858 L 357.506 149.858 Q 358.499 149.063 360.683 149.063 L 360.683 149.063 L 360.683 149.063 Q 364.059 149.063 364.059 151.314 L 364.059 151.314 L 364.059 151.314 Q 364.059 152.969 362.802 158.993 L 362.802 158.993 L 362.802 158.993 Q 361.213 166.275 361.213 168.857 L 361.213 168.857 L 361.213 168.857 Q 361.213 170.843 361.742 171.902 L 361.742 171.902 L 361.742 171.902 Q 362.272 172.962 363.53 172.962 L 363.53 172.962 L 363.53 172.962 Q 364.721 172.962 366.509 171.307 L 366.509 171.307 L 366.509 171.307 Q 367.028 170.826 367.648 170.183 L 367.648 170.183 Q 371.131 165.859 372.93 163.031 L 372.93 163.031 L 372.93 163.031 Q 374.056 161.112 375.578 157.901 L 375.578 157.901 L 375.578 157.901 Q 377.101 154.69 378.557 151.248 L 378.557 151.248 L 378.557 151.248 Q 379.815 148.335 383.787 148.335 L 383.787 148.335 L 383.787 148.335 Q 385.641 148.335 386.369 148.666 L 386.369 148.666 L 386.369 148.666 Q 387.097 148.997 387.097 149.725 L 387.097 149.725 L 387.097 149.725 Q 387.097 150.122 386.832 150.983 L 386.832 150.983 L 386.832 150.983 Q 386.568 151.844 386.104 152.704 L 386.104 152.704 L 386.104 152.704 Q 384.913 155.087 384.913 156.742 L 384.913 156.742 L 384.913 156.742 Q 384.913 157.735 385.608 158.927 L 385.608 158.927 L 385.608 158.927 Q 386.303 160.119 387.759 161.906 L 387.759 161.906 L 387.759 161.906 Q 389.878 164.686 390.97 166.639 L 390.97 166.639 L 390.97 166.639 Q 392.062 168.592 392.062 170.909 L 392.062 170.909 L 392.062 170.909 Q 392.062 171.571 391.93 172.763 L 391.93 172.763 L 391.93 172.763 Q 394.201 171.882 397.024 168.957 Q 396.829 167.621 396.829 166.143 L 396.829 166.143 L 396.829 166.143 Q 396.829 161.575 398.749 157.636 L 398.749 157.636 L 398.749 157.636 Q 400.668 153.697 404.078 151.38 L 404.078 151.38 L 404.078 151.38 Q 407.487 149.063 411.79 149.063 L 411.79 149.063 L 411.79 149.063 Q 415.63 149.063 417.947 151.347 L 417.947 151.347 L 417.947 151.347 Q 420.264 153.631 420.264 157.537 L 420.264 157.537 L 420.264 157.537 Q 420.264 162.105 416.987 165.382 L 416.987 165.382 L 416.987 165.382 Q 413.71 168.659 405.898 170.578 L 405.898 170.578 L 405.898 170.578 Q 407.553 173.624 412.187 173.624 L 412.187 173.624 L 412.187 173.624 Q 415.166 173.624 418.973 171.538 L 418.973 171.538 L 418.973 171.538 Q 421.753 170.015 423.985 167.804 L 423.985 167.804 L 423.985 167.804 Q 424.159 159.92 426.42 152.77 L 426.42 152.77 L 426.42 152.77 Q 427.016 150.851 428.373 149.957 L 428.373 149.957 L 428.373 149.957 Q 429.73 149.063 432.18 149.063 L 432.18 149.063 L 432.18 149.063 Q 433.504 149.063 434.033 149.394 L 434.033 149.394 L 434.033 149.394 Q 434.563 149.725 434.563 150.652 L 434.563 150.652 L 434.563 150.652 Q 434.563 151.711 433.57 155.418 L 433.57 155.418 L 433.57 155.418 Q 432.908 158.066 432.511 160.052 L 432.511 160.052 L 432.511 160.052 Q 432.114 162.038 431.849 164.951 L 431.849 164.951 L 431.849 164.951 Q 434.033 159.258 436.748 155.683 L 436.748 155.683 L 436.748 155.683 Q 439.462 152.108 442.077 150.586 L 442.077 150.586 L 442.077 150.586 Q 444.692 149.063 446.876 149.063 L 446.876 149.063 L 446.876 149.063 Q 451.179 149.063 451.179 153.366 L 451.179 153.366 L 451.179 153.366 Q 451.179 155.948 449.723 162.7 L 449.723 162.7 L 449.723 162.7 Q 448.465 168.46 448.465 170.314 L 448.465 170.314 L 448.465 170.314 Q 448.465 172.962 450.385 172.962 L 450.385 172.962 L 450.385 172.962 Q 451.709 172.962 453.529 171.34 L 453.529 171.34 L 453.529 171.34 Q 454.521 170.457 455.875 168.975 Q 455.681 167.694 455.681 166.342 L 455.681 166.342 L 455.681 166.342 Q 455.681 161.31 457.601 157.371 L 457.601 157.371 L 457.601 157.371 Q 459.521 153.432 462.897 151.215 L 462.897 151.215 L 462.897 151.215 Q 466.273 148.997 470.378 148.997 L 470.378 148.997 L 470.378 148.997 Q 475.409 148.997 478.487 152.472 L 478.487 152.472 L 478.487 152.472 Q 481.565 155.948 482.095 161.045 L 482.095 161.045 L 482.095 161.045 Q 485.206 160.847 489.51 159.721 L 489.51 159.721 L 489.51 159.721 Q 490.039 159.589 490.436 159.589 L 490.436 159.589 L 490.436 159.589 L 490.436 159.589 Q 491.297 159.589 491.76 160.45 L 491.76 160.45 L 491.76 160.45 Q 492.224 161.31 492.224 162.634 L 492.224 162.634 L 492.224 162.634 Q 492.224 165.812 490.304 166.408 L 490.304 166.408 L 490.304 166.408 Q 486.332 167.798 481.565 167.997 L 481.565 167.997 L 481.565 167.997 Q 480.308 173.557 476.6 176.901 L 476.6 176.901 L 476.6 176.901 Q 472.893 180.244 468.193 180.244 L 468.193 180.244 L 468.193 180.244 Q 464.221 180.244 461.407 178.324 L 461.407 178.324 L 461.407 178.324 Q 459.472 177.003 458.179 175.088 Z  M 315.799 180.244 L 315.799 180.244 Q 311.96 180.244 307.127 179.582 L 307.127 179.582 L 307.127 179.582 Q 304.479 179.251 303.486 178.191 L 303.486 178.191 L 303.486 178.191 Q 302.493 177.132 302.625 174.749 L 302.625 174.749 L 302.625 174.749 Q 303.089 168.195 304.81 158.563 L 304.81 158.563 L 304.81 158.563 Q 306.531 148.931 308.981 139.994 L 308.981 139.994 L 308.981 139.994 Q 309.444 138.339 310.834 137.677 L 310.834 137.677 L 310.834 137.677 Q 312.224 137.015 314.475 137.015 L 314.475 137.015 L 314.475 137.015 Q 318.513 137.015 318.513 139.265 L 318.513 139.265 L 318.513 139.265 Q 318.513 140.192 318.116 141.384 L 318.116 141.384 L 318.116 141.384 Q 316.395 146.68 314.674 155.584 L 314.674 155.584 L 314.674 155.584 Q 312.953 164.488 312.224 172.564 L 312.224 172.564 L 312.224 172.564 Q 314.21 172.763 316.726 172.763 L 316.726 172.763 L 316.726 172.763 Q 328.311 172.763 334.037 165.746 L 334.037 165.746 L 334.037 165.746 Q 339.764 158.728 339.764 147.011 L 339.764 147.011 L 339.764 147.011 Q 339.764 139.133 335.262 134.83 L 335.262 134.83 L 335.262 134.83 Q 330.761 130.527 322.552 130.527 L 322.552 130.527 L 322.552 130.527 Q 317.256 130.527 312.059 132.182 L 312.059 132.182 L 312.059 132.182 Q 306.862 133.837 302.691 136.551 L 302.691 136.551 L 302.691 136.551 Q 301.831 137.147 300.838 137.147 L 300.838 137.147 L 300.838 137.147 Q 299.712 137.147 299.05 136.187 L 299.05 136.187 L 299.05 136.187 Q 298.388 135.227 298.388 133.837 L 298.388 133.837 L 298.388 133.837 Q 298.388 132.248 298.918 131.222 L 298.918 131.222 L 298.918 131.222 Q 299.448 130.196 300.705 129.335 L 300.705 129.335 L 300.705 129.335 Q 305.273 126.224 311.43 124.602 L 311.43 124.602 L 311.43 124.602 Q 317.587 122.98 323.28 122.98 L 323.28 122.98 L 323.28 122.98 Q 331.356 122.98 337.248 125.794 L 337.248 125.794 L 337.248 125.794 Q 343.14 128.607 346.318 134.036 L 346.318 134.036 L 346.318 134.036 Q 349.495 139.464 349.495 147.143 L 349.495 147.143 L 349.495 147.143 Q 349.495 157.14 345.523 164.587 L 345.523 164.587 L 345.523 164.587 Q 341.551 172.035 333.938 176.139 L 333.938 176.139 L 333.938 176.139 Q 326.325 180.244 315.799 180.244 L 315.799 180.244 L 315.799 180.244 L 315.799 180.244 L 315.799 180.244 L 315.799 180.244 L 315.799 180.244 L 315.799 180.244 Z  M 361.941 144.694 L 361.941 144.694 Q 359.161 144.694 357.77 143.403 L 357.77 143.403 L 357.77 143.403 Q 356.38 142.112 356.38 139.795 L 356.38 139.795 L 356.38 139.795 Q 356.38 137.478 358.201 135.922 L 358.201 135.922 L 358.201 135.922 Q 360.021 134.367 362.735 134.367 L 362.735 134.367 L 362.735 134.367 Q 365.185 134.367 366.707 135.558 L 366.707 135.558 L 366.707 135.558 Q 368.23 136.75 368.23 138.934 L 368.23 138.934 L 368.23 138.934 Q 368.23 141.582 366.509 143.138 L 366.509 143.138 L 366.509 143.138 Q 364.788 144.694 361.941 144.694 L 361.941 144.694 L 361.941 144.694 L 361.941 144.694 L 361.941 144.694 L 361.941 144.694 L 361.941 144.694 L 361.941 144.694 Z  M 410.665 155.551 L 410.665 155.551 Q 408.215 155.551 406.527 158.397 L 406.527 158.397 L 406.527 158.397 Q 404.839 161.244 404.839 165.282 L 404.839 165.282 L 404.839 165.415 L 404.839 165.415 Q 408.745 164.488 410.996 162.634 L 410.996 162.634 L 410.996 162.634 Q 413.246 160.781 413.246 158.331 L 413.246 158.331 L 413.246 158.331 Q 413.246 157.073 412.551 156.312 L 412.551 156.312 L 412.551 156.312 Q 411.856 155.551 410.665 155.551 L 410.665 155.551 L 410.665 155.551 L 410.665 155.551 L 410.665 155.551 L 410.665 155.551 Z  M 448.2 144.694 L 448.2 144.694 Q 447.141 144.694 446.214 144.33 L 446.214 144.33 L 446.214 144.33 Q 445.288 143.966 443.831 142.973 L 443.831 142.973 L 436.748 138.074 L 433.835 142.245 L 433.835 142.245 Q 432.776 143.701 430.856 143.701 L 430.856 143.701 L 430.856 143.701 Q 429.664 143.701 428.837 143.006 L 428.837 143.006 L 428.837 143.006 Q 428.009 142.311 428.009 141.119 L 428.009 141.119 L 428.009 141.119 Q 428.009 139.596 430.459 136.022 L 430.459 136.022 L 430.459 136.022 Q 431.981 133.837 433.438 132.811 L 433.438 132.811 L 433.438 132.811 Q 434.894 131.785 436.615 131.785 L 436.615 131.785 L 436.615 131.785 Q 437.741 131.785 438.634 132.116 L 438.634 132.116 L 438.634 132.116 Q 439.528 132.447 440.984 133.506 L 440.984 133.506 L 448.068 138.405 L 450.981 134.234 L 450.981 134.234 Q 452.04 132.778 453.96 132.778 L 453.96 132.778 L 453.96 132.778 Q 455.151 132.778 455.979 133.473 L 455.979 133.473 L 455.979 133.473 Q 456.806 134.168 456.806 135.36 L 456.806 135.36 L 456.806 135.36 Q 456.806 136.286 456.177 137.445 L 456.177 137.445 L 456.177 137.445 Q 455.549 138.603 454.357 140.457 L 454.357 140.457 L 454.357 140.457 Q 452.834 142.642 451.378 143.668 L 451.378 143.668 L 451.378 143.668 Q 449.922 144.694 448.2 144.694 L 448.2 144.694 L 448.2 144.694 Z  M 468.722 173.226 L 468.722 173.226 Q 470.841 173.226 472.397 171.505 L 472.397 171.505 L 472.397 171.505 Q 473.952 169.784 474.482 166.54 L 474.482 166.54 L 474.482 166.54 Q 472.43 165.15 471.337 162.899 L 471.337 162.899 L 471.337 162.899 Q 470.245 160.648 470.245 158.133 L 470.245 158.133 L 470.245 158.133 Q 470.245 157.073 470.444 156.014 L 470.444 156.014 L 470.113 156.014 L 470.113 156.014 Q 467.465 156.014 465.71 158.563 L 465.71 158.563 L 465.71 158.563 Q 463.956 161.112 463.956 165.746 L 463.956 165.746 L 463.956 165.746 Q 463.956 169.387 465.379 171.307 L 465.379 171.307 L 465.379 171.307 Q 466.803 173.226 468.722 173.226 L 468.722 173.226 L 468.722 173.226 Z " fill-rule="evenodd" fill="rgb(255,255,255)"/><path d=" M 61.832 270.535 C 55.389 270.432 55.442 257.516 61.832 257.402 L 127.496 257.402 C 134.105 257.41 134.159 270.538 127.496 270.535 L 61.832 270.535 Z " fill="rgb(255,255,255)"/><path d=" M 285.088 191.738 L 285.088 178.606 L 245.69 152.34 L 285.088 126.075 L 285.088 112.942 L 232.558 145.774 L 232.558 158.906 L 285.088 191.738 Z " fill="rgb(255,255,255)"/><path d=" M 718.469 191.738 L 718.469 178.606 L 757.867 152.34 L 718.469 126.075 L 718.469 112.942 L 771 145.774 L 771 158.906 L 718.469 191.738 Z " fill="rgb(255,255,255)"/><path d=" M 166.893 145.774 L 166.893 158.906 L 180.026 158.906 C 183.964 158.981 186.583 161.558 186.593 165.473 L 186.593 185.172 C 186.542 189.534 184.463 191.654 180.026 191.738 L 166.893 191.738 L 166.893 204.871 L 186.593 204.871 C 196.894 204.843 199.761 201.423 199.725 191.738 L 199.725 158.906 C 199.719 148.921 196.488 145.82 186.593 145.774 L 166.893 145.774 Z " fill="rgb(255,255,255)"/><path d=" M 55.266 250.836 L 55.266 237.703 L 134.062 237.703 C 144.324 237.793 147.187 234.369 147.195 224.57 L 147.195 132.641 L 42.133 132.641 L 42.133 224.57 L 29 224.57 L 29 132.641 C 28.996 122.167 32.44 119.459 42.133 119.508 L 147.195 119.508 C 156.96 119.559 160.37 122.368 160.327 132.641 L 160.327 231.137 C 160.378 244.248 153.754 250.928 140.628 250.836 L 55.266 250.836 Z " fill="rgb(255,255,255)"/><path d=" M 48.699 237.703 L 48.699 250.836 L 42.133 250.836 C 32.341 250.84 28.985 247.531 29 237.703 L 29 231.137 L 42.133 231.137 C 42.126 237.694 42.154 237.666 48.699 237.703 Z " fill="rgb(255,255,255)"/><path d=" M 73.236 105.261 C 92.592 86.058 60.54 59.79 73.236 39.597 C 79.436 31.116 73.895 21.835 60.103 39.597 C 47.285 59.79 79.851 85.418 60.103 105.261 C 53.531 112.153 60.181 118.387 73.236 105.261 Z " fill="rgb(255,255,255)"/><path d=" M 121.584 105.261 C 140.94 86.058 110.455 79.489 123.151 59.297 C 129.351 50.815 123.81 41.534 110.018 59.297 C 97.2 79.489 128.199 85.418 108.451 105.261 C 101.879 112.153 108.528 118.387 121.584 105.261 Z " fill="rgb(255,255,255)"/><path d=" M 97.913 105.261 C 117.268 86.058 86.622 72.922 99.319 52.73 C 105.518 44.249 99.977 34.968 86.186 52.73 C 73.367 72.922 104.528 85.418 84.78 105.261 C 78.208 112.153 84.857 118.387 97.913 105.261 Z " fill="rgb(255,255,255)"/></g></svg>